<svg id="Capa_1" enable-background="new 0 0 510 510" height="512" viewBox="0 0 510 510" width="512" xmlns="http://www.w3.org/2000/svg" xmlns:xlink="http://www.w3.org/1999/xlink"><linearGradient id="SVGID_1_" gradientUnits="userSpaceOnUse" x1="101.5" x2="451.017" y1="101.5" y2="451.017"><stop offset="0" stop-color="#ffd833"/><stop offset="1" stop-color="#f2b631"/></linearGradient><linearGradient id="lg1"><stop offset="0" stop-color="#f9a126" stop-opacity="0"/><stop offset="1" stop-color="#f9a126"/></linearGradient><linearGradient id="SVGID_2_" gradientUnits="userSpaceOnUse" x1="323.42" x2="110.087" xlink:href="#lg1" y1="312.84" y2="224.84"/><linearGradient id="SVGID_3_" gradientUnits="userSpaceOnUse" x1="427.873" x2="259.206" xlink:href="#lg1" y1="383.806" y2="269.806"/><linearGradient id="SVGID_4_" gradientUnits="userSpaceOnUse" x1="382.792" x2="451.854" y1="400.022" y2="469.083"><stop offset="0" stop-color="#fedb87"/><stop offset="1" stop-color="#f2b631"/></linearGradient><linearGradient id="SVGID_5_" gradientUnits="userSpaceOnUse" x1="229.906" x2="229.906" xlink:href="#lg1" y1="450.888" y2="514.198"/><g><path d="m57.174 510h286.474c12.495 0 24.478-4.964 33.314-13.799l102.766-102.766c8.835-8.835 13.799-20.819 13.799-33.314v-319.42c0-22.385-18.316-40.701-40.701-40.701h-395.664c-22.379 0-40.689 18.31-40.689 40.689v428.61c0 22.385 18.315 40.701 40.701 40.701z" fill="url(#SVGID_1_)"/><path d="m479.728 393.435c8.835-8.835 13.799-20.819 13.799-33.314v-64.81l-160.141-160.242c-21.062-20.761-48.84-32.137-78.377-32.137-.553 0-1.103.004-1.657.012-60.343.868-109.696 50.684-110.016 111.048-.169 31.739 12.835 61.28 35.545 82.34 0 0 29.925 29.968 30.162 30.218.94 2.986 1.46 6.135 1.493 9.372l11.784 11.784-16.32.294v26.062c0 4.717 2.803 8.694 6.61 9.911l126.027 126.027h5.011c12.495 0 24.478-4.964 33.314-13.799z" fill="url(#SVGID_2_)"/><g><path d="m345.412 123.21c-.493-.486-.995-.96-1.495-1.438 22.95 24.052 35.545 55.436 35.545 88.833 0 44.506-22.508 85.263-60.209 109.024-1.419.894-2.266 2.413-2.266 4.063v43.996c0 15.834-11.338 29.066-26.321 32.015v4.703c0 8.349-6.768 15.118-15.118 15.118h-49.764c-3.048 0-5.879-.91-8.254-2.461 1.345 2.036 3.155 3.738 5.302 4.922l88.017 88.015h32.799c12.495 0 24.478-4.964 33.314-13.799l102.766-102.766c8.835-8.835 13.799-20.819 13.799-33.314v-88.796z" fill="url(#SVGID_3_)"/></g><path d="m492.131 371.551c.151-.654.29-1.291.417-1.905h-124.668c-8.828 0-15.984 7.156-15.984 15.984v123.629c.974-.173 1.998-.377 3.054-.61 9.294-2.055 17.767-6.834 24.497-13.564l99.143-99.143c6.703-6.704 11.411-15.155 13.541-24.391z" fill="url(#SVGID_4_)"/><path d="m443.339 429.823h-426.866v39.475c0 22.386 18.316 40.701 40.701 40.701h286.474c12.495 0 24.478-4.964 33.314-13.799z" fill="url(#SVGID_5_)"/><path d="m345.412 123.21c-24.748-24.395-57.545-37.541-92.303-37.053-33.771.485-65.556 14.063-89.499 38.232-23.941 24.167-37.225 56.077-37.404 89.853-.238 44.837 22.304 85.876 60.298 109.779 1.341.844 2.175 2.378 2.175 4.005v43.995c0 15.834 11.338 29.066 26.321 32.015v4.703c0 8.349 6.768 15.118 15.118 15.118h49.764c8.349 0 15.118-6.768 15.118-15.118v-4.703c14.983-2.949 26.321-16.18 26.321-32.015v-43.996c0-1.65.847-3.169 2.266-4.063 37.701-23.761 60.209-64.518 60.209-109.024 0-34.752-13.632-67.329-38.384-91.728zm-56.724 256.445h-67.375c-4.209 0-7.634-3.424-7.634-7.634v-19.31h82.643v19.311c-.001 4.208-3.425 7.633-7.634 7.633zm21.569-76.842c-8.637 5.443-13.82 14.733-13.926 24.897h-82.662c-.105-10.174-5.261-19.447-13.852-24.852-30.63-19.27-48.803-52.348-48.611-88.485.298-56.109 46.172-102.414 102.262-103.221.515-.007 1.027-.011 1.541-.011 27.455 0 53.276 10.574 72.853 29.872 19.948 19.664 30.935 45.917 30.935 73.924-.001 35.87-18.146 68.721-48.54 87.876z" fill="#ebeff0"/></g></svg>